<?xml version="1.0" encoding="UTF-8" standalone="no"?>
<!-- Uploaded to: SVG Repo, www.svgrepo.com, Generator: SVG Repo Mixer Tools -->

<svg
   fill="#000000"
   height="800px"
   width="800px"
   version="1.1"
   id="Layer_1"
   viewBox="0 0 512.424 512.424"
   xml:space="preserve"
   sodipodi:docname="microchip-svgrepo-com_0.35in.svg"
   inkscape:version="1.3.2 (091e20e, 2023-11-25)"
   xmlns:inkscape="http://www.inkscape.org/namespaces/inkscape"
   xmlns:sodipodi="http://sodipodi.sourceforge.net/DTD/sodipodi-0.dtd"
   xmlns="http://www.w3.org/2000/svg"
   xmlns:svg="http://www.w3.org/2000/svg"><defs
   id="defs2" /><sodipodi:namedview
   id="namedview2"
   pagecolor="#505050"
   bordercolor="#ffffff"
   borderopacity="1"
   inkscape:showpageshadow="0"
   inkscape:pageopacity="0"
   inkscape:pagecheckerboard="1"
   inkscape:deskcolor="#d1d1d1"
   inkscape:zoom="0.55"
   inkscape:cx="398.18182"
   inkscape:cy="-215.45455"
   inkscape:window-width="1392"
   inkscape:window-height="1212"
   inkscape:window-x="0"
   inkscape:window-y="25"
   inkscape:window-maximized="0"
   inkscape:current-layer="Layer_1" />
<g
   id="g2"
   transform="scale(0.042)">
	<g
   id="g1">
		<path
   d="m 500.424,168.212 c 6.624,0 12,-5.372 12,-12 0,-6.624 -5.376,-12 -12,-12 h -44.212 v -16 h 44.212 c 6.624,0 12,-5.376 12,-12 0,-6.628 -5.376,-12 -12,-12 h -44.212 v -3.88 c -4,-27.848 -19.728,-44.12 -43.992,-44.12 h -4.008 V 12 c 0,-6.624 -5.376,-12 -12,-12 -6.632,0 -12,5.376 -12,12 v 44.212 h -16 V 12 c 0,-6.624 -5.376,-12 -12,-12 -6.632,0 -12,5.376 -12,12 v 44.212 h -16 V 12 c 0,-6.624 -5.376,-12 -12,-12 -6.632,0 -12,5.376 -12,12 v 44.212 h -16 V 12 c 0,-6.624 -5.376,-12 -12,-12 -6.632,0 -12,5.376 -12,12 v 44.212 h -16 V 12 c 0,-6.624 -5.376,-12 -12,-12 -6.632,0 -12,5.376 -12,12 v 44.212 h -16 V 12 c 0,-6.624 -5.376,-12 -12,-12 -6.632,0 -12,5.376 -12,12 v 44.212 h -16 V 12 c 0,-6.624 -5.376,-12 -12,-12 -6.632,0 -12,5.376 -12,12 v 44.212 h -16 V 12 c 0,-6.624 -5.376,-12 -12,-12 -6.632,0 -12,5.376 -12,12 v 44.212 h -3.984 c -24.26,0 -44.016,19.86 -44.016,44.12 v 3.88 H 12 c -6.632,0 -12,5.372 -12,12 0,6.624 5.368,12 12,12 h 44.212 v 16 H 12 c -6.632,0 -12,5.376 -12,12 0,6.628 5.368,12 12,12 h 44.212 v 16 H 12 c -6.632,0 -12,5.372 -12,12 0,6.624 5.368,12 12,12 h 44.212 v 16 H 12 c -6.632,0 -12,5.372 -12,12 0,6.624 5.368,12 12,12 h 44.212 v 16 H 12 c -6.632,0 -12,5.376 -12,12 0,6.628 5.368,12 12,12 h 44.212 v 16 H 12 c -6.632,0 -12,5.372 -12,12 0,6.628 5.368,12 12,12 h 44.212 v 16 H 12 c -6.632,0 -12,5.376 -12,12 0,6.628 5.368,12 12,12 h 44.212 v 16 H 12 c -6.632,0 -12,5.372 -12,12 0,6.624 5.368,12 12,12 h 44.212 v 4.112 c 0,24.264 19.756,43.888 44.016,43.888 h 3.984 v 44.212 c 0,6.624 5.368,12 12,12 6.624,0 12,-5.376 12,-12 v -44.212 h 16 v 44.212 c 0,6.624 5.368,12 12,12 6.624,0 12,-5.376 12,-12 v -44.212 h 16 v 44.212 c 0,6.624 5.368,12 12,12 6.624,0 12,-5.376 12,-12 v -44.212 h 16 v 44.212 c 0,6.624 5.368,12 12,12 6.624,0 12,-5.376 12,-12 v -44.212 h 16 v 44.212 c 0,6.624 5.368,12 12,12 6.624,0 12,-5.376 12,-12 v -44.212 h 16 v 44.212 c 0,6.624 5.368,12 12,12 6.624,0 12,-5.376 12,-12 v -44.212 h 16 v 44.212 c 0,6.624 5.368,12 12,12 6.624,0 12,-5.376 12,-12 v -44.212 h 16 v 44.212 c 0,6.624 5.368,12 12,12 6.624,0 12,-5.376 12,-12 v -44.212 h 4.008 c 24.264,0 43.992,-19.624 43.992,-43.888 v -4.112 h 44.212 c 6.624,0 12,-5.376 12,-12 0,-6.628 -5.376,-12 -12,-12 h -44.212 v -16 h 44.212 c 6.624,0 12,-5.372 12,-12 0,-6.624 -5.376,-12 -12,-12 h -44.212 v -16 h 44.212 c 6.624,0 12,-5.372 12,-12 0,-6.628 -5.376,-12 -12,-12 h -44.212 v -16 h 44.212 c 6.624,0 12,-5.372 12,-12 0,-6.624 -5.376,-12 -12,-12 h -44.212 v -16 h 44.212 c 6.624,0 12,-5.376 12,-12 0,-6.628 -5.376,-12 -12,-12 h -44.212 v -16 h 44.212 c 6.624,0 12,-5.376 12,-12 0,-6.628 -5.376,-12 -12,-12 h -44.212 v -16 z"
   id="path1" />
	</g>
</g>
</svg>
