<?xml version="1.0" encoding="iso-8859-1"?>
<!-- Uploaded to: SVG Repo, www.svgrepo.com, Generator: SVG Repo Mixer Tools -->
<svg fill="#000000" height="800px" width="800px" version="1.1" id="Layer_1" xmlns="http://www.w3.org/2000/svg" xmlns:xlink="http://www.w3.org/1999/xlink" 
	 viewBox="0 0 512.424 512.424" xml:space="preserve">
<g>
	<g>
		<path d="M500.424,168.212c6.624,0,12-5.372,12-12c0-6.624-5.376-12-12-12h-44.212v-16h44.212c6.624,0,12-5.376,12-12
			c0-6.628-5.376-12-12-12h-44.212v-3.88c-4-27.848-19.728-44.12-43.992-44.12h-4.008V12c0-6.624-5.376-12-12-12
			c-6.632,0-12,5.376-12,12v44.212h-16V12c0-6.624-5.376-12-12-12c-6.632,0-12,5.376-12,12v44.212h-16V12c0-6.624-5.376-12-12-12
			c-6.632,0-12,5.376-12,12v44.212h-16V12c0-6.624-5.376-12-12-12c-6.632,0-12,5.376-12,12v44.212h-16V12c0-6.624-5.376-12-12-12
			c-6.632,0-12,5.376-12,12v44.212h-16V12c0-6.624-5.376-12-12-12c-6.632,0-12,5.376-12,12v44.212h-16V12c0-6.624-5.376-12-12-12
			c-6.632,0-12,5.376-12,12v44.212h-16V12c0-6.624-5.376-12-12-12c-6.632,0-12,5.376-12,12v44.212h-3.984
			c-24.26,0-44.016,19.86-44.016,44.12v3.88H12c-6.632,0-12,5.372-12,12c0,6.624,5.368,12,12,12h44.212v16H12
			c-6.632,0-12,5.376-12,12c0,6.628,5.368,12,12,12h44.212v16H12c-6.632,0-12,5.372-12,12c0,6.624,5.368,12,12,12h44.212v16H12
			c-6.632,0-12,5.372-12,12c0,6.624,5.368,12,12,12h44.212v16H12c-6.632,0-12,5.376-12,12c0,6.628,5.368,12,12,12h44.212v16H12
			c-6.632,0-12,5.372-12,12s5.368,12,12,12h44.212v16H12c-6.632,0-12,5.376-12,12c0,6.628,5.368,12,12,12h44.212v16H12
			c-6.632,0-12,5.372-12,12c0,6.624,5.368,12,12,12h44.212v4.112c0,24.264,19.756,43.888,44.016,43.888h3.984v44.212
			c0,6.624,5.368,12,12,12c6.624,0,12-5.376,12-12v-44.212h16v44.212c0,6.624,5.368,12,12,12c6.624,0,12-5.376,12-12v-44.212h16
			v44.212c0,6.624,5.368,12,12,12c6.624,0,12-5.376,12-12v-44.212h16v44.212c0,6.624,5.368,12,12,12c6.624,0,12-5.376,12-12v-44.212
			h16v44.212c0,6.624,5.368,12,12,12c6.624,0,12-5.376,12-12v-44.212h16v44.212c0,6.624,5.368,12,12,12c6.624,0,12-5.376,12-12
			v-44.212h16v44.212c0,6.624,5.368,12,12,12c6.624,0,12-5.376,12-12v-44.212h16v44.212c0,6.624,5.368,12,12,12
			c6.624,0,12-5.376,12-12v-44.212h4.008c24.264,0,43.992-19.624,43.992-43.888v-4.112h44.212c6.624,0,12-5.376,12-12
			c0-6.628-5.376-12-12-12h-44.212v-16h44.212c6.624,0,12-5.372,12-12c0-6.624-5.376-12-12-12h-44.212v-16h44.212
			c6.624,0,12-5.372,12-12s-5.376-12-12-12h-44.212v-16h44.212c6.624,0,12-5.372,12-12c0-6.624-5.376-12-12-12h-44.212v-16h44.212
			c6.624,0,12-5.376,12-12c0-6.628-5.376-12-12-12h-44.212v-16h44.212c6.624,0,12-5.376,12-12c0-6.628-5.376-12-12-12h-44.212v-16
			H500.424z"/>
	</g>
</g>
</svg>