ISO-10303-21;
HEADER;
/* Generated by software containing ST-Developer
 * from STEP Tools, Inc. (www.steptools.com) 
 */
/* OPTION: using custom renumber hook */

FILE_DESCRIPTION(
/* description */ ('STEP AP242',
'CAx-IF Rec.Pracs.---Representation and Presentation of Product Manufa
cturing Information (PMI)---4.0---2014-10-13',
'CAx-IF Rec.Pracs.---3D Tessellated Geometry---0.4---2014-09-14','2;1'),

/* implementation_level */ '2;1');

FILE_NAME(
/* name */ '68dd1e3ae47e399094009729',
/* time_stamp */ '2025-10-01T12:27:38Z',
/* author */ (''),
/* organization */ (''),
/* preprocessor_version */ 'ST-DEVELOPER v20',
/* originating_system */ 'ONSHAPE BY PTC INC, 1.204',
/* authorisation */ '  ');

FILE_SCHEMA (('AP242_MANAGED_MODEL_BASED_3D_ENGINEERING_MIM_LF { 1 0 10303 442 1 1 4 }'));
ENDSEC;

DATA;
#10=SHAPE_REPRESENTATION_RELATIONSHIP('','',#654,#11);
#11=ADVANCED_BREP_SHAPE_REPRESENTATION('',(#652),#1104);
#12=CONICAL_SURFACE('',#709,0.001162,0.785398163397446);
#13=CONICAL_SURFACE('',#711,0.001162,0.785398163397449);
#14=CONICAL_SURFACE('',#712,0.0004,0.785398163397448);
#15=CONICAL_SURFACE('',#714,0.0004,0.785398163397448);
#16=CONICAL_SURFACE('',#716,0.0004,0.785398163397448);
#17=CONICAL_SURFACE('',#718,0.0004,0.785398163397448);
#18=CONICAL_SURFACE('',#719,0.001162,0.785398163397446);
#19=CONICAL_SURFACE('',#721,0.001162,0.785398163397449);
#20=CIRCLE('',#658,0.000762);
#21=CIRCLE('',#659,0.000762);
#22=CIRCLE('',#662,0.000762);
#23=CIRCLE('',#663,0.000762);
#24=CIRCLE('',#667,0.000762);
#25=CIRCLE('',#668,0.000762);
#26=CIRCLE('',#670,0.009525);
#27=CIRCLE('',#671,0.009525);
#28=CIRCLE('',#673,0.000762);
#29=CIRCLE('',#674,0.000762);
#30=CIRCLE('',#678,0.000762);
#31=CIRCLE('',#679,0.000762);
#32=CIRCLE('',#682,0.000762);
#33=CIRCLE('',#683,0.000762);
#34=CIRCLE('',#687,0.00075);
#35=CIRCLE('',#688,0.001162);
#36=CIRCLE('',#689,0.001162);
#37=CIRCLE('',#690,0.001162);
#38=CIRCLE('',#691,0.001162);
#39=CIRCLE('',#693,0.0004);
#40=CIRCLE('',#694,0.0004);
#41=CIRCLE('',#695,0.0004);
#42=CIRCLE('',#696,0.0004);
#43=CIRCLE('',#698,0.0004);
#44=CIRCLE('',#700,0.0004);
#45=CIRCLE('',#702,0.0004);
#46=CIRCLE('',#704,0.0004);
#47=CIRCLE('',#706,0.00075);
#48=CYLINDRICAL_SURFACE('',#657,0.000762);
#49=CYLINDRICAL_SURFACE('',#661,0.000762);
#50=CYLINDRICAL_SURFACE('',#666,0.000762);
#51=CYLINDRICAL_SURFACE('',#669,0.009525);
#52=CYLINDRICAL_SURFACE('',#672,0.000762);
#53=CYLINDRICAL_SURFACE('',#677,0.000762);
#54=CYLINDRICAL_SURFACE('',#681,0.000762);
#55=CYLINDRICAL_SURFACE('',#697,0.0004);
#56=CYLINDRICAL_SURFACE('',#699,0.0004);
#57=CYLINDRICAL_SURFACE('',#701,0.0004);
#58=CYLINDRICAL_SURFACE('',#703,0.0004);
#59=CYLINDRICAL_SURFACE('',#705,0.00075);
#60=ORIENTED_EDGE('',*,*,#238,.T.);
#61=ORIENTED_EDGE('',*,*,#239,.T.);
#62=ORIENTED_EDGE('',*,*,#240,.T.);
#63=ORIENTED_EDGE('',*,*,#241,.F.);
#64=ORIENTED_EDGE('',*,*,#242,.F.);
#65=ORIENTED_EDGE('',*,*,#243,.T.);
#66=ORIENTED_EDGE('',*,*,#244,.T.);
#67=ORIENTED_EDGE('',*,*,#245,.T.);
#68=ORIENTED_EDGE('',*,*,#246,.F.);
#69=ORIENTED_EDGE('',*,*,#247,.T.);
#70=ORIENTED_EDGE('',*,*,#242,.T.);
#71=ORIENTED_EDGE('',*,*,#248,.T.);
#72=ORIENTED_EDGE('',*,*,#249,.F.);
#73=ORIENTED_EDGE('',*,*,#250,.T.);
#74=ORIENTED_EDGE('',*,*,#246,.T.);
#75=ORIENTED_EDGE('',*,*,#251,.T.);
#76=ORIENTED_EDGE('',*,*,#252,.F.);
#77=ORIENTED_EDGE('',*,*,#253,.T.);
#78=ORIENTED_EDGE('',*,*,#249,.T.);
#79=ORIENTED_EDGE('',*,*,#254,.T.);
#80=ORIENTED_EDGE('',*,*,#255,.F.);
#81=ORIENTED_EDGE('',*,*,#256,.T.);
#82=ORIENTED_EDGE('',*,*,#252,.T.);
#83=ORIENTED_EDGE('',*,*,#257,.T.);
#84=ORIENTED_EDGE('',*,*,#258,.F.);
#85=ORIENTED_EDGE('',*,*,#259,.T.);
#86=ORIENTED_EDGE('',*,*,#260,.F.);
#87=ORIENTED_EDGE('',*,*,#261,.F.);
#88=ORIENTED_EDGE('',*,*,#258,.T.);
#89=ORIENTED_EDGE('',*,*,#262,.F.);
#90=ORIENTED_EDGE('',*,*,#263,.F.);
#91=ORIENTED_EDGE('',*,*,#264,.T.);
#92=ORIENTED_EDGE('',*,*,#260,.T.);
#93=ORIENTED_EDGE('',*,*,#265,.T.);
#94=ORIENTED_EDGE('',*,*,#266,.F.);
#95=ORIENTED_EDGE('',*,*,#267,.F.);
#96=ORIENTED_EDGE('',*,*,#263,.T.);
#97=ORIENTED_EDGE('',*,*,#268,.F.);
#98=ORIENTED_EDGE('',*,*,#269,.T.);
#99=ORIENTED_EDGE('',*,*,#270,.T.);
#100=ORIENTED_EDGE('',*,*,#266,.T.);
#101=ORIENTED_EDGE('',*,*,#271,.F.);
#102=ORIENTED_EDGE('',*,*,#272,.F.);
#103=ORIENTED_EDGE('',*,*,#273,.T.);
#104=ORIENTED_EDGE('',*,*,#268,.T.);
#105=ORIENTED_EDGE('',*,*,#274,.F.);
#106=ORIENTED_EDGE('',*,*,#275,.F.);
#107=ORIENTED_EDGE('',*,*,#276,.T.);
#108=ORIENTED_EDGE('',*,*,#272,.T.);
#109=ORIENTED_EDGE('',*,*,#277,.T.);
#110=ORIENTED_EDGE('',*,*,#278,.F.);
#111=ORIENTED_EDGE('',*,*,#279,.T.);
#112=ORIENTED_EDGE('',*,*,#275,.T.);
#113=ORIENTED_EDGE('',*,*,#280,.F.);
#114=ORIENTED_EDGE('',*,*,#281,.T.);
#115=ORIENTED_EDGE('',*,*,#282,.T.);
#116=ORIENTED_EDGE('',*,*,#278,.T.);
#117=ORIENTED_EDGE('',*,*,#283,.T.);
#118=ORIENTED_EDGE('',*,*,#284,.T.);
#119=ORIENTED_EDGE('',*,*,#285,.T.);
#120=ORIENTED_EDGE('',*,*,#286,.T.);
#121=ORIENTED_EDGE('',*,*,#287,.T.);
#122=ORIENTED_EDGE('',*,*,#288,.T.);
#123=ORIENTED_EDGE('',*,*,#289,.T.);
#124=ORIENTED_EDGE('',*,*,#290,.T.);
#125=ORIENTED_EDGE('',*,*,#291,.T.);
#126=ORIENTED_EDGE('',*,*,#292,.F.);
#127=ORIENTED_EDGE('',*,*,#293,.T.);
#128=ORIENTED_EDGE('',*,*,#294,.T.);
#129=ORIENTED_EDGE('',*,*,#255,.T.);
#130=ORIENTED_EDGE('',*,*,#261,.T.);
#131=ORIENTED_EDGE('',*,*,#264,.F.);
#132=ORIENTED_EDGE('',*,*,#267,.T.);
#133=ORIENTED_EDGE('',*,*,#270,.F.);
#134=ORIENTED_EDGE('',*,*,#295,.T.);
#135=ORIENTED_EDGE('',*,*,#296,.T.);
#136=ORIENTED_EDGE('',*,*,#297,.T.);
#137=ORIENTED_EDGE('',*,*,#298,.T.);
#138=ORIENTED_EDGE('',*,*,#299,.T.);
#139=ORIENTED_EDGE('',*,*,#300,.T.);
#140=ORIENTED_EDGE('',*,*,#301,.T.);
#141=ORIENTED_EDGE('',*,*,#302,.T.);
#142=ORIENTED_EDGE('',*,*,#303,.T.);
#143=ORIENTED_EDGE('',*,*,#245,.F.);
#144=ORIENTED_EDGE('',*,*,#304,.T.);
#145=ORIENTED_EDGE('',*,*,#241,.T.);
#146=ORIENTED_EDGE('',*,*,#305,.T.);
#147=ORIENTED_EDGE('',*,*,#291,.F.);
#148=ORIENTED_EDGE('',*,*,#306,.T.);
#149=ORIENTED_EDGE('',*,*,#287,.F.);
#150=ORIENTED_EDGE('',*,*,#307,.T.);
#151=ORIENTED_EDGE('',*,*,#283,.F.);
#152=ORIENTED_EDGE('',*,*,#280,.T.);
#153=ORIENTED_EDGE('',*,*,#277,.F.);
#154=ORIENTED_EDGE('',*,*,#274,.T.);
#155=ORIENTED_EDGE('',*,*,#271,.T.);
#156=ORIENTED_EDGE('',*,*,#265,.F.);
#157=ORIENTED_EDGE('',*,*,#262,.T.);
#158=ORIENTED_EDGE('',*,*,#259,.F.);
#159=ORIENTED_EDGE('',*,*,#257,.F.);
#160=ORIENTED_EDGE('',*,*,#254,.F.);
#161=ORIENTED_EDGE('',*,*,#251,.F.);
#162=ORIENTED_EDGE('',*,*,#248,.F.);
#163=ORIENTED_EDGE('',*,*,#244,.F.);
#164=ORIENTED_EDGE('',*,*,#308,.T.);
#165=ORIENTED_EDGE('',*,*,#238,.F.);
#166=ORIENTED_EDGE('',*,*,#304,.F.);
#167=ORIENTED_EDGE('',*,*,#240,.F.);
#168=ORIENTED_EDGE('',*,*,#309,.T.);
#169=ORIENTED_EDGE('',*,*,#288,.F.);
#170=ORIENTED_EDGE('',*,*,#305,.F.);
#171=ORIENTED_EDGE('',*,*,#290,.F.);
#172=ORIENTED_EDGE('',*,*,#310,.T.);
#173=ORIENTED_EDGE('',*,*,#284,.F.);
#174=ORIENTED_EDGE('',*,*,#306,.F.);
#175=ORIENTED_EDGE('',*,*,#286,.F.);
#176=ORIENTED_EDGE('',*,*,#311,.T.);
#177=ORIENTED_EDGE('',*,*,#281,.F.);
#178=ORIENTED_EDGE('',*,*,#307,.F.);
#179=ORIENTED_EDGE('',*,*,#312,.F.);
#180=ORIENTED_EDGE('',*,*,#292,.T.);
#181=ORIENTED_EDGE('',*,*,#312,.T.);
#182=ORIENTED_EDGE('',*,*,#269,.F.);
#183=ORIENTED_EDGE('',*,*,#273,.F.);
#184=ORIENTED_EDGE('',*,*,#313,.F.);
#185=ORIENTED_EDGE('',*,*,#295,.F.);
#186=ORIENTED_EDGE('',*,*,#313,.T.);
#187=ORIENTED_EDGE('',*,*,#276,.F.);
#188=ORIENTED_EDGE('',*,*,#314,.F.);
#189=ORIENTED_EDGE('',*,*,#296,.F.);
#190=ORIENTED_EDGE('',*,*,#314,.T.);
#191=ORIENTED_EDGE('',*,*,#279,.F.);
#192=ORIENTED_EDGE('',*,*,#315,.F.);
#193=ORIENTED_EDGE('',*,*,#297,.F.);
#194=ORIENTED_EDGE('',*,*,#315,.T.);
#195=ORIENTED_EDGE('',*,*,#282,.F.);
#196=ORIENTED_EDGE('',*,*,#316,.F.);
#197=ORIENTED_EDGE('',*,*,#298,.F.);
#198=ORIENTED_EDGE('',*,*,#316,.T.);
#199=ORIENTED_EDGE('',*,*,#311,.F.);
#200=ORIENTED_EDGE('',*,*,#317,.F.);
#201=ORIENTED_EDGE('',*,*,#317,.T.);
#202=ORIENTED_EDGE('',*,*,#285,.F.);
#203=ORIENTED_EDGE('',*,*,#318,.F.);
#204=ORIENTED_EDGE('',*,*,#299,.F.);
#205=ORIENTED_EDGE('',*,*,#318,.T.);
#206=ORIENTED_EDGE('',*,*,#310,.F.);
#207=ORIENTED_EDGE('',*,*,#319,.F.);
#208=ORIENTED_EDGE('',*,*,#319,.T.);
#209=ORIENTED_EDGE('',*,*,#289,.F.);
#210=ORIENTED_EDGE('',*,*,#320,.F.);
#211=ORIENTED_EDGE('',*,*,#300,.F.);
#212=ORIENTED_EDGE('',*,*,#320,.T.);
#213=ORIENTED_EDGE('',*,*,#309,.F.);
#214=ORIENTED_EDGE('',*,*,#321,.F.);
#215=ORIENTED_EDGE('',*,*,#321,.T.);
#216=ORIENTED_EDGE('',*,*,#239,.F.);
#217=ORIENTED_EDGE('',*,*,#322,.F.);
#218=ORIENTED_EDGE('',*,*,#301,.F.);
#219=ORIENTED_EDGE('',*,*,#322,.T.);
#220=ORIENTED_EDGE('',*,*,#308,.F.);
#221=ORIENTED_EDGE('',*,*,#323,.F.);
#222=ORIENTED_EDGE('',*,*,#323,.T.);
#223=ORIENTED_EDGE('',*,*,#243,.F.);
#224=ORIENTED_EDGE('',*,*,#324,.F.);
#225=ORIENTED_EDGE('',*,*,#302,.F.);
#226=ORIENTED_EDGE('',*,*,#324,.T.);
#227=ORIENTED_EDGE('',*,*,#247,.F.);
#228=ORIENTED_EDGE('',*,*,#325,.F.);
#229=ORIENTED_EDGE('',*,*,#303,.F.);
#230=ORIENTED_EDGE('',*,*,#325,.T.);
#231=ORIENTED_EDGE('',*,*,#250,.F.);
#232=ORIENTED_EDGE('',*,*,#326,.F.);
#233=ORIENTED_EDGE('',*,*,#293,.F.);
#234=ORIENTED_EDGE('',*,*,#326,.T.);
#235=ORIENTED_EDGE('',*,*,#253,.F.);
#236=ORIENTED_EDGE('',*,*,#256,.F.);
#237=ORIENTED_EDGE('',*,*,#294,.F.);
#238=EDGE_CURVE('',#327,#328,#381,.T.);
#239=EDGE_CURVE('',#328,#329,#382,.T.);
#240=EDGE_CURVE('',#329,#330,#383,.T.);
#241=EDGE_CURVE('',#327,#330,#384,.T.);
#242=EDGE_CURVE('',#331,#332,#385,.T.);
#243=EDGE_CURVE('',#331,#333,#20,.T.);
#244=EDGE_CURVE('',#333,#334,#386,.T.);
#245=EDGE_CURVE('',#334,#332,#21,.F.);
#246=EDGE_CURVE('',#335,#336,#387,.T.);
#247=EDGE_CURVE('',#335,#331,#388,.T.);
#248=EDGE_CURVE('',#332,#336,#389,.T.);
#249=EDGE_CURVE('',#337,#338,#390,.T.);
#250=EDGE_CURVE('',#337,#335,#22,.T.);
#251=EDGE_CURVE('',#336,#338,#23,.F.);
#252=EDGE_CURVE('',#339,#340,#391,.T.);
#253=EDGE_CURVE('',#339,#337,#392,.T.);
#254=EDGE_CURVE('',#338,#340,#393,.T.);
#255=EDGE_CURVE('',#341,#342,#394,.T.);
#256=EDGE_CURVE('',#341,#339,#395,.T.);
#257=EDGE_CURVE('',#340,#343,#396,.T.);
#258=EDGE_CURVE('',#342,#343,#397,.T.);
#259=EDGE_CURVE('',#343,#344,#24,.T.);
#260=EDGE_CURVE('',#345,#344,#398,.T.);
#261=EDGE_CURVE('',#342,#345,#25,.T.);
#262=EDGE_CURVE('',#346,#344,#26,.T.);
#263=EDGE_CURVE('',#347,#346,#399,.T.);
#264=EDGE_CURVE('',#347,#345,#27,.T.);
#265=EDGE_CURVE('',#346,#348,#28,.T.);
#266=EDGE_CURVE('',#349,#348,#400,.T.);
#267=EDGE_CURVE('',#347,#349,#29,.T.);
#268=EDGE_CURVE('',#350,#351,#401,.T.);
#269=EDGE_CURVE('',#350,#352,#402,.F.);
#270=EDGE_CURVE('',#352,#349,#403,.T.);
#271=EDGE_CURVE('',#351,#348,#404,.T.);
#272=EDGE_CURVE('',#353,#354,#405,.T.);
#273=EDGE_CURVE('',#353,#350,#406,.T.);
#274=EDGE_CURVE('',#354,#351,#407,.T.);
#275=EDGE_CURVE('',#355,#356,#408,.T.);
#276=EDGE_CURVE('',#355,#353,#30,.T.);
#277=EDGE_CURVE('',#354,#356,#31,.F.);
#278=EDGE_CURVE('',#357,#358,#409,.T.);
#279=EDGE_CURVE('',#357,#355,#410,.T.);
#280=EDGE_CURVE('',#358,#356,#411,.T.);
#281=EDGE_CURVE('',#359,#360,#412,.F.);
#282=EDGE_CURVE('',#360,#357,#32,.T.);
#283=EDGE_CURVE('',#358,#359,#33,.F.);
#284=EDGE_CURVE('',#361,#362,#413,.F.);
#285=EDGE_CURVE('',#362,#363,#414,.T.);
#286=EDGE_CURVE('',#363,#364,#415,.T.);
#287=EDGE_CURVE('',#364,#361,#416,.T.);
#288=EDGE_CURVE('',#365,#366,#417,.F.);
#289=EDGE_CURVE('',#366,#367,#418,.T.);
#290=EDGE_CURVE('',#367,#368,#419,.T.);
#291=EDGE_CURVE('',#368,#365,#420,.T.);
#292=EDGE_CURVE('',#369,#369,#34,.T.);
#293=EDGE_CURVE('',#370,#371,#35,.F.);
#294=EDGE_CURVE('',#371,#341,#421,.T.);
#295=EDGE_CURVE('',#352,#372,#422,.T.);
#296=EDGE_CURVE('',#372,#373,#36,.F.);
#297=EDGE_CURVE('',#373,#374,#423,.T.);
#298=EDGE_CURVE('',#374,#375,#37,.F.);
#299=EDGE_CURVE('',#375,#376,#424,.T.);
#300=EDGE_CURVE('',#376,#377,#425,.T.);
#301=EDGE_CURVE('',#377,#378,#426,.T.);
#302=EDGE_CURVE('',#378,#379,#38,.F.);
#303=EDGE_CURVE('',#379,#370,#427,.T.);
#304=EDGE_CURVE('',#334,#327,#39,.F.);
#305=EDGE_CURVE('',#330,#365,#40,.F.);
#306=EDGE_CURVE('',#368,#361,#41,.F.);
#307=EDGE_CURVE('',#364,#359,#42,.F.);
#308=EDGE_CURVE('',#333,#328,#43,.F.);
#309=EDGE_CURVE('',#329,#366,#44,.F.);
#310=EDGE_CURVE('',#367,#362,#45,.F.);
#311=EDGE_CURVE('',#363,#360,#46,.F.);
#312=EDGE_CURVE('',#380,#380,#47,.T.);
#313=EDGE_CURVE('',#372,#353,#428,.T.);
#314=EDGE_CURVE('',#373,#355,#429,.T.);
#315=EDGE_CURVE('',#374,#357,#430,.T.);
#316=EDGE_CURVE('',#375,#360,#431,.T.);
#317=EDGE_CURVE('',#375,#363,#432,.T.);
#318=EDGE_CURVE('',#376,#362,#433,.T.);
#319=EDGE_CURVE('',#376,#367,#434,.T.);
#320=EDGE_CURVE('',#377,#366,#435,.T.);
#321=EDGE_CURVE('',#377,#329,#436,.T.);
#322=EDGE_CURVE('',#378,#328,#437,.T.);
#323=EDGE_CURVE('',#378,#333,#438,.T.);
#324=EDGE_CURVE('',#379,#331,#439,.T.);
#325=EDGE_CURVE('',#370,#335,#440,.T.);
#326=EDGE_CURVE('',#371,#337,#441,.T.);
#327=VERTEX_POINT('',#923);
#328=VERTEX_POINT('',#924);
#329=VERTEX_POINT('',#926);
#330=VERTEX_POINT('',#928);
#331=VERTEX_POINT('',#932);
#332=VERTEX_POINT('',#933);
#333=VERTEX_POINT('',#935);
#334=VERTEX_POINT('',#937);
#335=VERTEX_POINT('',#941);
#336=VERTEX_POINT('',#942);
#337=VERTEX_POINT('',#947);
#338=VERTEX_POINT('',#948);
#339=VERTEX_POINT('',#953);
#340=VERTEX_POINT('',#954);
#341=VERTEX_POINT('',#959);
#342=VERTEX_POINT('',#960);
#343=VERTEX_POINT('',#963);
#344=VERTEX_POINT('',#967);
#345=VERTEX_POINT('',#969);
#346=VERTEX_POINT('',#973);
#347=VERTEX_POINT('',#975);
#348=VERTEX_POINT('',#979);
#349=VERTEX_POINT('',#981);
#350=VERTEX_POINT('',#985);
#351=VERTEX_POINT('',#986);
#352=VERTEX_POINT('',#988);
#353=VERTEX_POINT('',#993);
#354=VERTEX_POINT('',#994);
#355=VERTEX_POINT('',#999);
#356=VERTEX_POINT('',#1000);
#357=VERTEX_POINT('',#1005);
#358=VERTEX_POINT('',#1006);
#359=VERTEX_POINT('',#1011);
#360=VERTEX_POINT('',#1012);
#361=VERTEX_POINT('',#1017);
#362=VERTEX_POINT('',#1018);
#363=VERTEX_POINT('',#1020);
#364=VERTEX_POINT('',#1022);
#365=VERTEX_POINT('',#1026);
#366=VERTEX_POINT('',#1027);
#367=VERTEX_POINT('',#1029);
#368=VERTEX_POINT('',#1031);
#369=VERTEX_POINT('',#1035);
#370=VERTEX_POINT('',#1037);
#371=VERTEX_POINT('',#1038);
#372=VERTEX_POINT('',#1041);
#373=VERTEX_POINT('',#1043);
#374=VERTEX_POINT('',#1045);
#375=VERTEX_POINT('',#1047);
#376=VERTEX_POINT('',#1049);
#377=VERTEX_POINT('',#1051);
#378=VERTEX_POINT('',#1053);
#379=VERTEX_POINT('',#1055);
#380=VERTEX_POINT('',#1072);
#381=LINE('',#922,#442);
#382=LINE('',#925,#443);
#383=LINE('',#927,#444);
#384=LINE('',#929,#445);
#385=LINE('',#931,#446);
#386=LINE('',#936,#447);
#387=LINE('',#940,#448);
#388=LINE('',#943,#449);
#389=LINE('',#944,#450);
#390=LINE('',#946,#451);
#391=LINE('',#952,#452);
#392=LINE('',#955,#453);
#393=LINE('',#956,#454);
#394=LINE('',#958,#455);
#395=LINE('',#961,#456);
#396=LINE('',#962,#457);
#397=LINE('',#964,#458);
#398=LINE('',#968,#459);
#399=LINE('',#974,#460);
#400=LINE('',#980,#461);
#401=LINE('',#984,#462);
#402=LINE('',#987,#463);
#403=LINE('',#989,#464);
#404=LINE('',#990,#465);
#405=LINE('',#992,#466);
#406=LINE('',#995,#467);
#407=LINE('',#996,#468);
#408=LINE('',#998,#469);
#409=LINE('',#1004,#470);
#410=LINE('',#1007,#471);
#411=LINE('',#1008,#472);
#412=LINE('',#1010,#473);
#413=LINE('',#1016,#474);
#414=LINE('',#1019,#475);
#415=LINE('',#1021,#476);
#416=LINE('',#1023,#477);
#417=LINE('',#1025,#478);
#418=LINE('',#1028,#479);
#419=LINE('',#1030,#480);
#420=LINE('',#1032,#481);
#421=LINE('',#1039,#482);
#422=LINE('',#1040,#483);
#423=LINE('',#1044,#484);
#424=LINE('',#1048,#485);
#425=LINE('',#1050,#486);
#426=LINE('',#1052,#487);
#427=LINE('',#1056,#488);
#428=LINE('',#1075,#489);
#429=LINE('',#1077,#490);
#430=LINE('',#1079,#491);
#431=LINE('',#1081,#492);
#432=LINE('',#1083,#493);
#433=LINE('',#1085,#494);
#434=LINE('',#1087,#495);
#435=LINE('',#1089,#496);
#436=LINE('',#1091,#497);
#437=LINE('',#1093,#498);
#438=LINE('',#1095,#499);
#439=LINE('',#1097,#500);
#440=LINE('',#1099,#501);
#441=LINE('',#1101,#502);
#442=VECTOR('',#727,1.);
#443=VECTOR('',#728,1.);
#444=VECTOR('',#729,1.);
#445=VECTOR('',#730,1.);
#446=VECTOR('',#733,1.);
#447=VECTOR('',#736,1.);
#448=VECTOR('',#741,1.);
#449=VECTOR('',#742,1.);
#450=VECTOR('',#743,1.);
#451=VECTOR('',#746,1.);
#452=VECTOR('',#753,1.);
#453=VECTOR('',#754,1.);
#454=VECTOR('',#755,1.);
#455=VECTOR('',#758,1.);
#456=VECTOR('',#759,1.);
#457=VECTOR('',#760,1.);
#458=VECTOR('',#761,1.);
#459=VECTOR('',#766,1.);
#460=VECTOR('',#773,1.);
#461=VECTOR('',#780,1.);
#462=VECTOR('',#785,1.);
#463=VECTOR('',#786,1.);
#464=VECTOR('',#787,1.);
#465=VECTOR('',#788,1.);
#466=VECTOR('',#791,1.);
#467=VECTOR('',#792,1.);
#468=VECTOR('',#793,1.);
#469=VECTOR('',#796,1.);
#470=VECTOR('',#803,1.);
#471=VECTOR('',#804,1.);
#472=VECTOR('',#805,1.);
#473=VECTOR('',#808,1.);
#474=VECTOR('',#815,1.);
#475=VECTOR('',#816,1.);
#476=VECTOR('',#817,1.);
#477=VECTOR('',#818,1.);
#478=VECTOR('',#821,1.);
#479=VECTOR('',#822,1.);
#480=VECTOR('',#823,1.);
#481=VECTOR('',#824,1.);
#482=VECTOR('',#831,1.);
#483=VECTOR('',#832,1.);
#484=VECTOR('',#835,1.);
#485=VECTOR('',#838,1.);
#486=VECTOR('',#839,1.);
#487=VECTOR('',#840,1.);
#488=VECTOR('',#843,1.);
#489=VECTOR('',#878,1.);
#490=VECTOR('',#881,1.);
#491=VECTOR('',#884,1.);
#492=VECTOR('',#887,1.);
#493=VECTOR('',#890,1.);
#494=VECTOR('',#893,1.);
#495=VECTOR('',#896,1.);
#496=VECTOR('',#899,1.);
#497=VECTOR('',#902,1.);
#498=VECTOR('',#905,1.);
#499=VECTOR('',#908,1.);
#500=VECTOR('',#911,1.);
#501=VECTOR('',#914,1.);
#502=VECTOR('',#917,1.);
#503=EDGE_LOOP('',(#60,#61,#62,#63));
#504=EDGE_LOOP('',(#64,#65,#66,#67));
#505=EDGE_LOOP('',(#68,#69,#70,#71));
#506=EDGE_LOOP('',(#72,#73,#74,#75));
#507=EDGE_LOOP('',(#76,#77,#78,#79));
#508=EDGE_LOOP('',(#80,#81,#82,#83,#84));
#509=EDGE_LOOP('',(#85,#86,#87,#88));
#510=EDGE_LOOP('',(#89,#90,#91,#92));
#511=EDGE_LOOP('',(#93,#94,#95,#96));
#512=EDGE_LOOP('',(#97,#98,#99,#100,#101));
#513=EDGE_LOOP('',(#102,#103,#104,#105));
#514=EDGE_LOOP('',(#106,#107,#108,#109));
#515=EDGE_LOOP('',(#110,#111,#112,#113));
#516=EDGE_LOOP('',(#114,#115,#116,#117));
#517=EDGE_LOOP('',(#118,#119,#120,#121));
#518=EDGE_LOOP('',(#122,#123,#124,#125));
#519=EDGE_LOOP('',(#126));
#520=EDGE_LOOP('',(#127,#128,#129,#130,#131,#132,#133,#134,#135,#136,#137,
#138,#139,#140,#141,#142));
#521=EDGE_LOOP('',(#143,#144,#145,#146,#147,#148,#149,#150,#151,#152,#153,
#154,#155,#156,#157,#158,#159,#160,#161,#162));
#522=EDGE_LOOP('',(#163,#164,#165,#166));
#523=EDGE_LOOP('',(#167,#168,#169,#170));
#524=EDGE_LOOP('',(#171,#172,#173,#174));
#525=EDGE_LOOP('',(#175,#176,#177,#178));
#526=EDGE_LOOP('',(#179));
#527=EDGE_LOOP('',(#180));
#528=EDGE_LOOP('',(#181));
#529=EDGE_LOOP('',(#182,#183,#184,#185));
#530=EDGE_LOOP('',(#186,#187,#188,#189));
#531=EDGE_LOOP('',(#190,#191,#192,#193));
#532=EDGE_LOOP('',(#194,#195,#196,#197));
#533=EDGE_LOOP('',(#198,#199,#200));
#534=EDGE_LOOP('',(#201,#202,#203,#204));
#535=EDGE_LOOP('',(#205,#206,#207));
#536=EDGE_LOOP('',(#208,#209,#210,#211));
#537=EDGE_LOOP('',(#212,#213,#214));
#538=EDGE_LOOP('',(#215,#216,#217,#218));
#539=EDGE_LOOP('',(#219,#220,#221));
#540=EDGE_LOOP('',(#222,#223,#224,#225));
#541=EDGE_LOOP('',(#226,#227,#228,#229));
#542=EDGE_LOOP('',(#230,#231,#232,#233));
#543=EDGE_LOOP('',(#234,#235,#236,#237));
#544=FACE_BOUND('',#503,.T.);
#545=FACE_BOUND('',#504,.T.);
#546=FACE_BOUND('',#505,.T.);
#547=FACE_BOUND('',#506,.T.);
#548=FACE_BOUND('',#507,.T.);
#549=FACE_BOUND('',#508,.T.);
#550=FACE_BOUND('',#509,.T.);
#551=FACE_BOUND('',#510,.T.);
#552=FACE_BOUND('',#511,.T.);
#553=FACE_BOUND('',#512,.T.);
#554=FACE_BOUND('',#513,.T.);
#555=FACE_BOUND('',#514,.T.);
#556=FACE_BOUND('',#515,.T.);
#557=FACE_BOUND('',#516,.T.);
#558=FACE_BOUND('',#517,.T.);
#559=FACE_BOUND('',#518,.T.);
#560=FACE_BOUND('',#519,.T.);
#561=FACE_BOUND('',#520,.T.);
#562=FACE_BOUND('',#521,.T.);
#563=FACE_BOUND('',#522,.T.);
#564=FACE_BOUND('',#523,.T.);
#565=FACE_BOUND('',#524,.T.);
#566=FACE_BOUND('',#525,.T.);
#567=FACE_BOUND('',#526,.T.);
#568=FACE_BOUND('',#527,.T.);
#569=FACE_BOUND('',#528,.T.);
#570=FACE_BOUND('',#529,.T.);
#571=FACE_BOUND('',#530,.T.);
#572=FACE_BOUND('',#531,.T.);
#573=FACE_BOUND('',#532,.T.);
#574=FACE_BOUND('',#533,.T.);
#575=FACE_BOUND('',#534,.T.);
#576=FACE_BOUND('',#535,.T.);
#577=FACE_BOUND('',#536,.T.);
#578=FACE_BOUND('',#537,.T.);
#579=FACE_BOUND('',#538,.T.);
#580=FACE_BOUND('',#539,.T.);
#581=FACE_BOUND('',#540,.T.);
#582=FACE_BOUND('',#541,.T.);
#583=FACE_BOUND('',#542,.T.);
#584=FACE_BOUND('',#543,.T.);
#585=PLANE('',#656);
#586=PLANE('',#660);
#587=PLANE('',#664);
#588=PLANE('',#665);
#589=PLANE('',#675);
#590=PLANE('',#676);
#591=PLANE('',#680);
#592=PLANE('',#684);
#593=PLANE('',#685);
#594=PLANE('',#686);
#595=PLANE('',#692);
#596=PLANE('',#707);
#597=PLANE('',#708);
#598=PLANE('',#710);
#599=PLANE('',#713);
#600=PLANE('',#715);
#601=PLANE('',#717);
#602=PLANE('',#720);
#603=PLANE('',#722);
#604=ADVANCED_FACE('',(#544),#585,.T.);
#605=ADVANCED_FACE('',(#545),#48,.F.);
#606=ADVANCED_FACE('',(#546),#586,.F.);
#607=ADVANCED_FACE('',(#547),#49,.F.);
#608=ADVANCED_FACE('',(#548),#587,.F.);
#609=ADVANCED_FACE('',(#549),#588,.F.);
#610=ADVANCED_FACE('',(#550),#50,.T.);
#611=ADVANCED_FACE('',(#551),#51,.F.);
#612=ADVANCED_FACE('',(#552),#52,.T.);
#613=ADVANCED_FACE('',(#553),#589,.T.);
#614=ADVANCED_FACE('',(#554),#590,.T.);
#615=ADVANCED_FACE('',(#555),#53,.F.);
#616=ADVANCED_FACE('',(#556),#591,.T.);
#617=ADVANCED_FACE('',(#557),#54,.F.);
#618=ADVANCED_FACE('',(#558),#592,.F.);
#619=ADVANCED_FACE('',(#559),#593,.F.);
#620=ADVANCED_FACE('',(#560,#561),#594,.T.);
#621=ADVANCED_FACE('',(#562),#595,.F.);
#622=ADVANCED_FACE('',(#563),#55,.T.);
#623=ADVANCED_FACE('',(#564),#56,.T.);
#624=ADVANCED_FACE('',(#565),#57,.T.);
#625=ADVANCED_FACE('',(#566),#58,.T.);
#626=ADVANCED_FACE('',(#567,#568),#59,.F.);
#627=ADVANCED_FACE('',(#569),#596,.T.);
#628=ADVANCED_FACE('',(#570),#597,.F.);
#629=ADVANCED_FACE('',(#571),#12,.F.);
#630=ADVANCED_FACE('',(#572),#598,.F.);
#631=ADVANCED_FACE('',(#573),#13,.F.);
#632=ADVANCED_FACE('',(#574),#14,.T.);
#633=ADVANCED_FACE('',(#575),#599,.T.);
#634=ADVANCED_FACE('',(#576),#15,.T.);
#635=ADVANCED_FACE('',(#577),#600,.T.);
#636=ADVANCED_FACE('',(#578),#16,.T.);
#637=ADVANCED_FACE('',(#579),#601,.F.);
#638=ADVANCED_FACE('',(#580),#17,.T.);
#639=ADVANCED_FACE('',(#581),#18,.F.);
#640=ADVANCED_FACE('',(#582),#602,.T.);
#641=ADVANCED_FACE('',(#583),#19,.F.);
#642=ADVANCED_FACE('',(#584),#603,.T.);
#643=CLOSED_SHELL('',(#604,#605,#606,#607,#608,#609,#610,#611,#612,#613,
#614,#615,#616,#617,#618,#619,#620,#621,#622,#623,#624,#625,#626,#627,#628,
#629,#630,#631,#632,#633,#634,#635,#636,#637,#638,#639,#640,#641,#642));
#644=STYLED_ITEM('',(#645),#652);
#645=PRESENTATION_STYLE_ASSIGNMENT((#646));
#646=SURFACE_STYLE_USAGE(.BOTH.,#647);
#647=SURFACE_SIDE_STYLE('',(#648));
#648=SURFACE_STYLE_FILL_AREA(#649);
#649=FILL_AREA_STYLE('',(#650));
#650=FILL_AREA_STYLE_COLOUR('',#651);
#651=COLOUR_RGB('',0.980392156862745,0.796078431372549,0.262745098039216);
#652=MANIFOLD_SOLID_BREP('Winding Spacer',#643);
#653=SHAPE_DEFINITION_REPRESENTATION(#1109,#654);
#654=SHAPE_REPRESENTATION('Winding Spacer',(#655),#1104);
#655=AXIS2_PLACEMENT_3D('',#920,#723,#724);
#656=AXIS2_PLACEMENT_3D('',#921,#725,#726);
#657=AXIS2_PLACEMENT_3D('',#930,#731,#732);
#658=AXIS2_PLACEMENT_3D('',#934,#734,#735);
#659=AXIS2_PLACEMENT_3D('',#938,#737,#738);
#660=AXIS2_PLACEMENT_3D('',#939,#739,#740);
#661=AXIS2_PLACEMENT_3D('',#945,#744,#745);
#662=AXIS2_PLACEMENT_3D('',#949,#747,#748);
#663=AXIS2_PLACEMENT_3D('',#950,#749,#750);
#664=AXIS2_PLACEMENT_3D('',#951,#751,#752);
#665=AXIS2_PLACEMENT_3D('',#957,#756,#757);
#666=AXIS2_PLACEMENT_3D('',#965,#762,#763);
#667=AXIS2_PLACEMENT_3D('',#966,#764,#765);
#668=AXIS2_PLACEMENT_3D('',#970,#767,#768);
#669=AXIS2_PLACEMENT_3D('',#971,#769,#770);
#670=AXIS2_PLACEMENT_3D('',#972,#771,#772);
#671=AXIS2_PLACEMENT_3D('',#976,#774,#775);
#672=AXIS2_PLACEMENT_3D('',#977,#776,#777);
#673=AXIS2_PLACEMENT_3D('',#978,#778,#779);
#674=AXIS2_PLACEMENT_3D('',#982,#781,#782);
#675=AXIS2_PLACEMENT_3D('',#983,#783,#784);
#676=AXIS2_PLACEMENT_3D('',#991,#789,#790);
#677=AXIS2_PLACEMENT_3D('',#997,#794,#795);
#678=AXIS2_PLACEMENT_3D('',#1001,#797,#798);
#679=AXIS2_PLACEMENT_3D('',#1002,#799,#800);
#680=AXIS2_PLACEMENT_3D('',#1003,#801,#802);
#681=AXIS2_PLACEMENT_3D('',#1009,#806,#807);
#682=AXIS2_PLACEMENT_3D('',#1013,#809,#810);
#683=AXIS2_PLACEMENT_3D('',#1014,#811,#812);
#684=AXIS2_PLACEMENT_3D('',#1015,#813,#814);
#685=AXIS2_PLACEMENT_3D('',#1024,#819,#820);
#686=AXIS2_PLACEMENT_3D('',#1033,#825,#826);
#687=AXIS2_PLACEMENT_3D('',#1034,#827,#828);
#688=AXIS2_PLACEMENT_3D('',#1036,#829,#830);
#689=AXIS2_PLACEMENT_3D('',#1042,#833,#834);
#690=AXIS2_PLACEMENT_3D('',#1046,#836,#837);
#691=AXIS2_PLACEMENT_3D('',#1054,#841,#842);
#692=AXIS2_PLACEMENT_3D('',#1057,#844,#845);
#693=AXIS2_PLACEMENT_3D('',#1058,#846,#847);
#694=AXIS2_PLACEMENT_3D('',#1059,#848,#849);
#695=AXIS2_PLACEMENT_3D('',#1060,#850,#851);
#696=AXIS2_PLACEMENT_3D('',#1061,#852,#853);
#697=AXIS2_PLACEMENT_3D('',#1062,#854,#855);
#698=AXIS2_PLACEMENT_3D('',#1063,#856,#857);
#699=AXIS2_PLACEMENT_3D('',#1064,#858,#859);
#700=AXIS2_PLACEMENT_3D('',#1065,#860,#861);
#701=AXIS2_PLACEMENT_3D('',#1066,#862,#863);
#702=AXIS2_PLACEMENT_3D('',#1067,#864,#865);
#703=AXIS2_PLACEMENT_3D('',#1068,#866,#867);
#704=AXIS2_PLACEMENT_3D('',#1069,#868,#869);
#705=AXIS2_PLACEMENT_3D('',#1070,#870,#871);
#706=AXIS2_PLACEMENT_3D('',#1071,#872,#873);
#707=AXIS2_PLACEMENT_3D('',#1073,#874,#875);
#708=AXIS2_PLACEMENT_3D('',#1074,#876,#877);
#709=AXIS2_PLACEMENT_3D('',#1076,#879,#880);
#710=AXIS2_PLACEMENT_3D('',#1078,#882,#883);
#711=AXIS2_PLACEMENT_3D('',#1080,#885,#886);
#712=AXIS2_PLACEMENT_3D('',#1082,#888,#889);
#713=AXIS2_PLACEMENT_3D('',#1084,#891,#892);
#714=AXIS2_PLACEMENT_3D('',#1086,#894,#895);
#715=AXIS2_PLACEMENT_3D('',#1088,#897,#898);
#716=AXIS2_PLACEMENT_3D('',#1090,#900,#901);
#717=AXIS2_PLACEMENT_3D('',#1092,#903,#904);
#718=AXIS2_PLACEMENT_3D('',#1094,#906,#907);
#719=AXIS2_PLACEMENT_3D('',#1096,#909,#910);
#720=AXIS2_PLACEMENT_3D('',#1098,#912,#913);
#721=AXIS2_PLACEMENT_3D('',#1100,#915,#916);
#722=AXIS2_PLACEMENT_3D('',#1102,#918,#919);
#723=DIRECTION('',(0.,0.,1.));
#724=DIRECTION('',(1.,0.,0.));
#725=DIRECTION('',(-1.,0.,0.));
#726=DIRECTION('',(0.,0.,1.));
#727=DIRECTION('',(0.,0.,1.));
#728=DIRECTION('',(0.,1.,0.));
#729=DIRECTION('',(0.,0.,-1.));
#730=DIRECTION('',(0.,1.,0.));
#731=DIRECTION('',(0.,0.,-1.));
#732=DIRECTION('',(-1.,0.,0.));
#733=DIRECTION('',(0.,0.,-1.));
#734=DIRECTION('',(0.,0.,1.));
#735=DIRECTION('',(1.,0.,0.));
#736=DIRECTION('',(0.,0.,-1.));
#737=DIRECTION('',(0.,0.,1.));
#738=DIRECTION('',(1.,0.,0.));
#739=DIRECTION('',(1.,0.,0.));
#740=DIRECTION('',(0.,0.,-1.));
#741=DIRECTION('',(0.,0.,-1.));
#742=DIRECTION('',(0.,1.,0.));
#743=DIRECTION('',(0.,-1.,0.));
#744=DIRECTION('',(0.,0.,-1.));
#745=DIRECTION('',(-1.,0.,0.));
#746=DIRECTION('',(0.,0.,-1.));
#747=DIRECTION('',(0.,0.,1.));
#748=DIRECTION('',(1.,0.,0.));
#749=DIRECTION('',(0.,0.,1.));
#750=DIRECTION('',(1.,0.,0.));
#751=DIRECTION('',(0.,-1.,0.));
#752=DIRECTION('',(0.,0.,-1.));
#753=DIRECTION('',(0.,0.,-1.));
#754=DIRECTION('',(1.,0.,0.));
#755=DIRECTION('',(-1.,0.,0.));
#756=DIRECTION('',(1.,0.,0.));
#757=DIRECTION('',(0.,0.,-1.));
#758=DIRECTION('',(0.,-1.,0.));
#759=DIRECTION('',(0.,0.707106781186548,-0.707106781186548));
#760=DIRECTION('',(0.,-1.,0.));
#761=DIRECTION('',(0.,0.,-1.));
#762=DIRECTION('',(0.,0.,-1.));
#763=DIRECTION('',(-1.,0.,0.));
#764=DIRECTION('',(0.,0.,1.));
#765=DIRECTION('',(1.,0.,0.));
#766=DIRECTION('',(0.,0.,-1.));
#767=DIRECTION('',(0.,0.,1.));
#768=DIRECTION('',(1.,0.,0.));
#769=DIRECTION('',(0.,0.,-1.));
#770=DIRECTION('',(-1.,0.,0.));
#771=DIRECTION('',(0.,0.,1.));
#772=DIRECTION('',(1.,0.,0.));
#773=DIRECTION('',(0.,0.,-1.));
#774=DIRECTION('',(0.,0.,1.));
#775=DIRECTION('',(1.,0.,0.));
#776=DIRECTION('',(0.,0.,-1.));
#777=DIRECTION('',(-1.,0.,0.));
#778=DIRECTION('',(0.,0.,1.));
#779=DIRECTION('',(1.,0.,0.));
#780=DIRECTION('',(0.,0.,-1.));
#781=DIRECTION('',(0.,0.,1.));
#782=DIRECTION('',(1.,0.,0.));
#783=DIRECTION('',(1.,0.,0.));
#784=DIRECTION('',(0.,0.,-1.));
#785=DIRECTION('',(0.,0.,-1.));
#786=DIRECTION('',(0.,0.707106781186548,-0.707106781186548));
#787=DIRECTION('',(0.,-1.,0.));
#788=DIRECTION('',(0.,-1.,0.));
#789=DIRECTION('',(0.,1.,0.));
#790=DIRECTION('',(0.,0.,1.));
#791=DIRECTION('',(0.,0.,-1.));
#792=DIRECTION('',(1.,0.,0.));
#793=DIRECTION('',(1.,0.,0.));
#794=DIRECTION('',(0.,0.,-1.));
#795=DIRECTION('',(-1.,0.,0.));
#796=DIRECTION('',(0.,0.,-1.));
#797=DIRECTION('',(0.,0.,1.));
#798=DIRECTION('',(1.,0.,0.));
#799=DIRECTION('',(0.,0.,1.));
#800=DIRECTION('',(1.,0.,0.));
#801=DIRECTION('',(1.,0.,0.));
#802=DIRECTION('',(0.,0.,-1.));
#803=DIRECTION('',(0.,0.,-1.));
#804=DIRECTION('',(0.,-1.,0.));
#805=DIRECTION('',(0.,-1.,0.));
#806=DIRECTION('',(0.,0.,-1.));
#807=DIRECTION('',(-1.,0.,0.));
#808=DIRECTION('',(0.,0.,-1.));
#809=DIRECTION('',(0.,0.,1.));
#810=DIRECTION('',(1.,0.,0.));
#811=DIRECTION('',(0.,0.,1.));
#812=DIRECTION('',(1.,0.,0.));
#813=DIRECTION('',(-1.,0.,0.));
#814=DIRECTION('',(0.,0.,1.));
#815=DIRECTION('',(0.,0.,-1.));
#816=DIRECTION('',(0.,-1.,0.));
#817=DIRECTION('',(0.,0.,-1.));
#818=DIRECTION('',(0.,1.,0.));
#819=DIRECTION('',(0.,-1.,0.));
#820=DIRECTION('',(0.,0.,-1.));
#821=DIRECTION('',(0.,0.,-1.));
#822=DIRECTION('',(1.,0.,0.));
#823=DIRECTION('',(0.,0.,-1.));
#824=DIRECTION('',(-1.,0.,0.));
#825=DIRECTION('',(0.,0.,1.));
#826=DIRECTION('',(1.,0.,0.));
#827=DIRECTION('',(0.,0.,1.));
#828=DIRECTION('',(1.,0.,0.));
#829=DIRECTION('',(0.,0.,1.));
#830=DIRECTION('',(1.,0.,0.));
#831=DIRECTION('',(-1.,0.,0.));
#832=DIRECTION('',(-1.,0.,0.));
#833=DIRECTION('',(0.,0.,1.));
#834=DIRECTION('',(1.,0.,0.));
#835=DIRECTION('',(0.,1.,0.));
#836=DIRECTION('',(0.,0.,1.));
#837=DIRECTION('',(1.,0.,0.));
#838=DIRECTION('',(0.,1.,0.));
#839=DIRECTION('',(-1.,0.,0.));
#840=DIRECTION('',(0.,-1.,0.));
#841=DIRECTION('',(0.,0.,1.));
#842=DIRECTION('',(1.,0.,0.));
#843=DIRECTION('',(0.,-1.,0.));
#844=DIRECTION('',(0.,0.,1.));
#845=DIRECTION('',(1.,0.,0.));
#846=DIRECTION('',(0.,0.,1.));
#847=DIRECTION('',(1.,0.,0.));
#848=DIRECTION('',(0.,0.,1.));
#849=DIRECTION('',(1.,0.,0.));
#850=DIRECTION('',(0.,0.,1.));
#851=DIRECTION('',(1.,0.,0.));
#852=DIRECTION('',(0.,0.,1.));
#853=DIRECTION('',(1.,0.,0.));
#854=DIRECTION('',(0.,0.,-1.));
#855=DIRECTION('',(-1.,0.,0.));
#856=DIRECTION('',(0.,0.,1.));
#857=DIRECTION('',(1.,0.,0.));
#858=DIRECTION('',(0.,0.,1.));
#859=DIRECTION('',(1.,0.,0.));
#860=DIRECTION('',(0.,0.,1.));
#861=DIRECTION('',(1.,0.,0.));
#862=DIRECTION('',(0.,0.,-1.));
#863=DIRECTION('',(-1.,0.,0.));
#864=DIRECTION('',(0.,0.,1.));
#865=DIRECTION('',(1.,0.,0.));
#866=DIRECTION('',(0.,0.,-1.));
#867=DIRECTION('',(-1.,0.,0.));
#868=DIRECTION('',(0.,0.,1.));
#869=DIRECTION('',(1.,0.,0.));
#870=DIRECTION('',(0.,0.,1.));
#871=DIRECTION('',(1.,0.,0.));
#872=DIRECTION('',(0.,0.,1.));
#873=DIRECTION('',(1.,0.,0.));
#874=DIRECTION('',(0.,0.,1.));
#875=DIRECTION('',(1.,0.,0.));
#876=DIRECTION('',(0.,-0.707106781186548,-0.707106781186548));
#877=DIRECTION('',(1.,0.,0.));
#878=DIRECTION('',(0.,0.707106781186548,-0.707106781186548));
#879=DIRECTION('',(0.,0.,1.));
#880=DIRECTION('',(1.,0.,0.));
#881=DIRECTION('',(0.707106781186548,0.,-0.707106781186548));
#882=DIRECTION('',(-0.707106781186548,0.,-0.707106781186548));
#883=DIRECTION('',(0.,-1.,0.));
#884=DIRECTION('',(0.707106781186548,0.,-0.707106781186548));
#885=DIRECTION('',(0.,0.,1.));
#886=DIRECTION('',(1.,0.,0.));
#887=DIRECTION('',(0.168161253493068,-0.686820058547827,-0.707106781186547));
#888=DIRECTION('',(0.,0.,-1.));
#889=DIRECTION('',(-1.,0.,0.));
#890=DIRECTION('',(0.707106781186548,0.,-0.707106781186548));
#891=DIRECTION('',(0.707106781186548,0.,0.707106781186548));
#892=DIRECTION('',(0.,-1.,0.));
#893=DIRECTION('',(0.707106781186548,0.,-0.707106781186548));
#894=DIRECTION('',(0.,0.,-1.));
#895=DIRECTION('',(-1.,0.,0.));
#896=DIRECTION('',(0.,0.707106781186548,-0.707106781186548));
#897=DIRECTION('',(0.,0.707106781186548,0.707106781186548));
#898=DIRECTION('',(1.,0.,0.));
#899=DIRECTION('',(0.,0.707106781186548,-0.707106781186548));
#900=DIRECTION('',(0.,0.,-1.));
#901=DIRECTION('',(-1.,0.,0.));
#902=DIRECTION('',(-0.707106781186548,0.,-0.707106781186548));
#903=DIRECTION('',(0.707106781186548,0.,-0.707106781186548));
#904=DIRECTION('',(0.,1.,0.));
#905=DIRECTION('',(-0.707106781186548,0.,-0.707106781186548));
#906=DIRECTION('',(0.,0.,-1.));
#907=DIRECTION('',(-1.,0.,0.));
#908=DIRECTION('',(-0.168161253493069,-0.686820058547825,-0.707106781186549));
#909=DIRECTION('',(0.,0.,1.));
#910=DIRECTION('',(1.,0.,0.));
#911=DIRECTION('',(-0.707106781186548,0.,-0.707106781186548));
#912=DIRECTION('',(-0.707106781186548,0.,0.707106781186548));
#913=DIRECTION('',(0.,1.,0.));
#914=DIRECTION('',(-0.707106781186548,0.,-0.707106781186548));
#915=DIRECTION('',(0.,0.,1.));
#916=DIRECTION('',(1.,0.,0.));
#917=DIRECTION('',(0.,0.707106781186548,-0.707106781186548));
#918=DIRECTION('',(0.,0.707106781186548,0.707106781186548));
#919=DIRECTION('',(1.,0.,0.));
#920=CARTESIAN_POINT('',(0.,0.,0.));
#921=CARTESIAN_POINT('',(0.0216568421052632,0.0154379882307342,0.00238125));
#922=CARTESIAN_POINT('',(0.0216568421052632,0.0154147513200624,0.00238125));
#923=CARTESIAN_POINT('',(0.0216568421052632,0.0154147513200624,0.0015875));
#924=CARTESIAN_POINT('',(0.0216568421052632,0.0154147513200624,0.00198125));
#925=CARTESIAN_POINT('',(0.0216568421052632,0.0154379882307342,0.00198125));
#926=CARTESIAN_POINT('',(0.0216568421052632,0.0154379882307342,0.00198125));
#927=CARTESIAN_POINT('',(0.0216568421052632,0.0154379882307342,0.0015875));
#928=CARTESIAN_POINT('',(0.0216568421052632,0.0154379882307342,0.0015875));
#929=CARTESIAN_POINT('',(0.0216568421052632,0.0154379882307342,0.0015875));
#930=CARTESIAN_POINT('',(0.0217805,0.0142860888191975,0.00238125));
#931=CARTESIAN_POINT('',(0.0225425,0.0142860888191975,0.00238125));
#932=CARTESIAN_POINT('',(0.0225425,0.0142860888191975,0.00198125));
#933=CARTESIAN_POINT('',(0.0225425,0.0142860888191975,0.0015875));
#934=CARTESIAN_POINT('',(0.0217805,0.0142860888191975,0.00198125));
#935=CARTESIAN_POINT('',(0.0219617157351209,0.0150262272233791,0.00198125));
#936=CARTESIAN_POINT('',(0.0219617157351209,0.0150262272233791,0.00238125));
#937=CARTESIAN_POINT('',(0.0219617157351209,0.0150262272233791,0.0015875));
#938=CARTESIAN_POINT('',(0.0217805,0.0142860888191975,0.0015875));
#939=CARTESIAN_POINT('',(0.0225425,0.0136792561210691,0.00238125));
#940=CARTESIAN_POINT('',(0.0225425,0.0112662561210691,0.00238125));
#941=CARTESIAN_POINT('',(0.0225425,0.0112662561210691,0.00198125));
#942=CARTESIAN_POINT('',(0.0225425,0.0112662561210691,0.0015875));
#943=CARTESIAN_POINT('',(0.0225425,0.0142860888191975,0.00198125));
#944=CARTESIAN_POINT('',(0.0225425,0.0136792561210691,0.0015875));
#945=CARTESIAN_POINT('',(0.0217805,0.0112662561210691,0.00238125));
#946=CARTESIAN_POINT('',(0.0217805,0.0105042561210691,0.00238125));
#947=CARTESIAN_POINT('',(0.0217805,0.0105042561210691,0.00198125));
#948=CARTESIAN_POINT('',(0.0217805,0.0105042561210691,0.0015875));
#949=CARTESIAN_POINT('',(0.0217805,0.0112662561210691,0.00198125));
#950=CARTESIAN_POINT('',(0.0217805,0.0112662561210691,0.0015875));
#951=CARTESIAN_POINT('',(0.02174875,0.0105042561210691,0.00238125));
#952=CARTESIAN_POINT('',(0.020955,0.0105042561210691,0.00238125));
#953=CARTESIAN_POINT('',(0.020955,0.0105042561210691,0.00198125));
#954=CARTESIAN_POINT('',(0.020955,0.0105042561210691,0.0015875));
#955=CARTESIAN_POINT('',(0.0217805,0.0105042561210691,0.00198125));
#956=CARTESIAN_POINT('',(0.02174875,0.0105042561210691,0.0015875));
#957=CARTESIAN_POINT('',(0.020955,0.00974225612106915,0.00238125));
#958=CARTESIAN_POINT('',(0.020955,0.00974225612106915,0.00238125));
#959=CARTESIAN_POINT('',(0.020955,0.0101042561210691,0.00238125));
#960=CARTESIAN_POINT('',(0.020955,0.009999989999995,0.00238125));
#961=CARTESIAN_POINT('',(0.020955,0.0101042561210691,0.00238125));
#962=CARTESIAN_POINT('',(0.020955,0.00974225612106915,0.0015875));
#963=CARTESIAN_POINT('',(0.020955,0.009999989999995,0.0015875));
#964=CARTESIAN_POINT('',(0.020955,0.009999989999995,0.00238125));
#965=CARTESIAN_POINT('',(0.021717,0.009999989999995,0.00238125));
#966=CARTESIAN_POINT('',(0.021717,0.009999989999995,0.0015875));
#967=CARTESIAN_POINT('',(0.0218957407407408,0.00925924999999537,0.0015875));
#968=CARTESIAN_POINT('',(0.0218957407407408,0.00925924999999537,0.00238125));
#969=CARTESIAN_POINT('',(0.0218957407407408,0.00925924999999537,0.00238125));
#970=CARTESIAN_POINT('',(0.021717,0.009999989999995,0.00238125));
#971=CARTESIAN_POINT('',(0.02413,-9.54097911787244E-18,0.00238125));
#972=CARTESIAN_POINT('',(0.02413,-9.54097911787244E-18,0.0015875));
#973=CARTESIAN_POINT('',(0.0263642592592593,0.00925924999999537,0.0015875));
#974=CARTESIAN_POINT('',(0.0263642592592593,0.00925924999999537,0.00238125));
#975=CARTESIAN_POINT('',(0.0263642592592593,0.00925924999999537,0.00238125));
#976=CARTESIAN_POINT('',(0.02413,-9.54097911787244E-18,0.00238125));
#977=CARTESIAN_POINT('',(0.026543,0.009999989999995,0.00238125));
#978=CARTESIAN_POINT('',(0.026543,0.009999989999995,0.0015875));
#979=CARTESIAN_POINT('',(0.027305,0.009999989999995,0.0015875));
#980=CARTESIAN_POINT('',(0.027305,0.009999989999995,0.00238125));
#981=CARTESIAN_POINT('',(0.027305,0.009999989999995,0.00238125));
#982=CARTESIAN_POINT('',(0.026543,0.009999989999995,0.00238125));
#983=CARTESIAN_POINT('',(0.027305,0.00974225612106915,0.00238125));
#984=CARTESIAN_POINT('',(0.027305,0.0105042561210691,0.00238125));
#985=CARTESIAN_POINT('',(0.027305,0.0105042561210691,0.00198125));
#986=CARTESIAN_POINT('',(0.027305,0.0105042561210691,0.0015875));
#987=CARTESIAN_POINT('',(0.027305,0.00992325612106915,0.00256225));
#988=CARTESIAN_POINT('',(0.027305,0.0101042561210691,0.00238125));
#989=CARTESIAN_POINT('',(0.027305,0.00974225612106915,0.00238125));
#990=CARTESIAN_POINT('',(0.027305,0.00974225612106915,0.0015875));
#991=CARTESIAN_POINT('',(0.02651125,0.0105042561210691,0.00238125));
#992=CARTESIAN_POINT('',(0.0264795,0.0105042561210691,0.00238125));
#993=CARTESIAN_POINT('',(0.0264795,0.0105042561210691,0.00198125));
#994=CARTESIAN_POINT('',(0.0264795,0.0105042561210691,0.0015875));
#995=CARTESIAN_POINT('',(0.02651125,0.0105042561210691,0.00198125));
#996=CARTESIAN_POINT('',(0.02651125,0.0105042561210691,0.0015875));
#997=CARTESIAN_POINT('',(0.0264795,0.0112662561210691,0.00238125));
#998=CARTESIAN_POINT('',(0.0257175,0.0112662561210691,0.00238125));
#999=CARTESIAN_POINT('',(0.0257175,0.0112662561210691,0.00198125));
#1000=CARTESIAN_POINT('',(0.0257175,0.0112662561210691,0.0015875));
#1001=CARTESIAN_POINT('',(0.0264795,0.0112662561210691,0.00198125));
#1002=CARTESIAN_POINT('',(0.0264795,0.0112662561210691,0.0015875));
#1003=CARTESIAN_POINT('',(0.0257175,0.0136792561210691,0.00238125));
#1004=CARTESIAN_POINT('',(0.0257175,0.0142860888191975,0.00238125));
#1005=CARTESIAN_POINT('',(0.0257175,0.0142860888191975,0.00198125));
#1006=CARTESIAN_POINT('',(0.0257175,0.0142860888191975,0.0015875));
#1007=CARTESIAN_POINT('',(0.0257175,0.0136792561210691,0.00198125));
#1008=CARTESIAN_POINT('',(0.0257175,0.0136792561210691,0.0015875));
#1009=CARTESIAN_POINT('',(0.0264795,0.0142860888191975,0.00238125));
#1010=CARTESIAN_POINT('',(0.0262982842648791,0.0150262272233791,0.00238125));
#1011=CARTESIAN_POINT('',(0.0262982842648791,0.0150262272233791,0.0015875));
#1012=CARTESIAN_POINT('',(0.0262982842648791,0.0150262272233791,0.00198125));
#1013=CARTESIAN_POINT('',(0.0264795,0.0142860888191975,0.00198125));
#1014=CARTESIAN_POINT('',(0.0264795,0.0142860888191975,0.0015875));
#1015=CARTESIAN_POINT('',(0.0266031578947368,0.0154379882307342,0.00238125));
#1016=CARTESIAN_POINT('',(0.0266031578947368,0.0154379882307342,0.00238125));
#1017=CARTESIAN_POINT('',(0.0266031578947368,0.0154379882307342,0.0015875));
#1018=CARTESIAN_POINT('',(0.0266031578947368,0.0154379882307342,0.00198125));
#1019=CARTESIAN_POINT('',(0.0266031578947368,0.0154147513200624,0.00198125));
#1020=CARTESIAN_POINT('',(0.0266031578947368,0.0154147513200624,0.00198125));
#1021=CARTESIAN_POINT('',(0.0266031578947368,0.0154147513200624,0.00238125));
#1022=CARTESIAN_POINT('',(0.0266031578947368,0.0154147513200624,0.0015875));
#1023=CARTESIAN_POINT('',(0.0266031578947368,0.0154379882307342,0.0015875));
#1024=CARTESIAN_POINT('',(0.02413,0.0158379882307342,0.00238125));
#1025=CARTESIAN_POINT('',(0.0220568421052632,0.0158379882307342,0.00238125));
#1026=CARTESIAN_POINT('',(0.0220568421052632,0.0158379882307342,0.0015875));
#1027=CARTESIAN_POINT('',(0.0220568421052632,0.0158379882307342,0.00198125));
#1028=CARTESIAN_POINT('',(0.0262031578947369,0.0158379882307342,0.00198125));
#1029=CARTESIAN_POINT('',(0.0262031578947369,0.0158379882307342,0.00198125));
#1030=CARTESIAN_POINT('',(0.0262031578947369,0.0158379882307342,0.00238125));
#1031=CARTESIAN_POINT('',(0.0262031578947369,0.0158379882307342,0.0015875));
#1032=CARTESIAN_POINT('',(0.02413,0.0158379882307342,0.0015875));
#1033=CARTESIAN_POINT('',(6.93889390390723E-18,0.,0.00238125));
#1034=CARTESIAN_POINT('',(0.02413,0.0127761724701333,0.00238125));
#1035=CARTESIAN_POINT('',(0.02488,0.0127761724701333,0.00238125));
#1036=CARTESIAN_POINT('',(0.0217805,0.0112662561210691,0.00238125));
#1037=CARTESIAN_POINT('',(0.0229425,0.0112662561210691,0.00238125));
#1038=CARTESIAN_POINT('',(0.0217805,0.0101042561210691,0.00238125));
#1039=CARTESIAN_POINT('',(0.020955,0.0101042561210691,0.00238125));
#1040=CARTESIAN_POINT('',(6.93889390390723E-18,0.0101042561210691,0.00238125));
#1041=CARTESIAN_POINT('',(0.0264795,0.0101042561210691,0.00238125));
#1042=CARTESIAN_POINT('',(0.0264795,0.0112662561210691,0.00238125));
#1043=CARTESIAN_POINT('',(0.0253175,0.0112662561210691,0.00238125));
#1044=CARTESIAN_POINT('',(0.0253175,0.,0.00238125));
#1045=CARTESIAN_POINT('',(0.0253175,0.0142860888191975,0.00238125));
#1046=CARTESIAN_POINT('',(0.0264795,0.0142860888191975,0.00238125));
#1047=CARTESIAN_POINT('',(0.0262031578947369,0.0154147513200624,0.00238125));
#1048=CARTESIAN_POINT('',(0.0262031578947369,0.0154379882307342,0.00238125));
#1049=CARTESIAN_POINT('',(0.0262031578947369,0.0154379882307342,0.00238125));
#1050=CARTESIAN_POINT('',(0.0220568421052632,0.0154379882307342,0.00238125));
#1051=CARTESIAN_POINT('',(0.0220568421052632,0.0154379882307342,0.00238125));
#1052=CARTESIAN_POINT('',(0.0220568421052632,0.,0.00238125));
#1053=CARTESIAN_POINT('',(0.0220568421052632,0.0154147513200624,0.00238125));
#1054=CARTESIAN_POINT('',(0.0217805,0.0142860888191975,0.00238125));
#1055=CARTESIAN_POINT('',(0.0229425,0.0142860888191975,0.00238125));
#1056=CARTESIAN_POINT('',(0.0229425,0.0112662561210691,0.00238125));
#1057=CARTESIAN_POINT('',(6.93889390390723E-18,0.,0.0015875));
#1058=CARTESIAN_POINT('',(0.0220568421052632,0.0154147513200624,0.0015875));
#1059=CARTESIAN_POINT('',(0.0220568421052632,0.0154379882307342,0.0015875));
#1060=CARTESIAN_POINT('',(0.0262031578947369,0.0154379882307342,0.0015875));
#1061=CARTESIAN_POINT('',(0.0262031578947369,0.0154147513200624,0.0015875));
#1062=CARTESIAN_POINT('',(0.0220568421052632,0.0154147513200624,0.00238125));
#1063=CARTESIAN_POINT('',(0.0220568421052632,0.0154147513200624,0.00198125));
#1064=CARTESIAN_POINT('',(0.0220568421052632,0.0154379882307342,0.00238125));
#1065=CARTESIAN_POINT('',(0.0220568421052632,0.0154379882307342,0.00198125));
#1066=CARTESIAN_POINT('',(0.0262031578947369,0.0154379882307342,0.00238125));
#1067=CARTESIAN_POINT('',(0.0262031578947369,0.0154379882307342,0.00198125));
#1068=CARTESIAN_POINT('',(0.0262031578947369,0.0154147513200624,0.00238125));
#1069=CARTESIAN_POINT('',(0.0262031578947369,0.0154147513200624,0.00198125));
#1070=CARTESIAN_POINT('',(0.02413,0.0127761724701333,0.00178125));
#1071=CARTESIAN_POINT('',(0.02413,0.0127761724701333,0.00178125));
#1072=CARTESIAN_POINT('',(0.02488,0.0127761724701333,0.00178125));
#1073=CARTESIAN_POINT('',(0.02413,0.0125379891153646,0.00178125));
#1074=CARTESIAN_POINT('',(0.02651125,0.0105042561210691,0.00198125));
#1075=CARTESIAN_POINT('',(0.0264795,0.0101042561210691,0.00238125));
#1076=CARTESIAN_POINT('',(0.0264795,0.0112662561210691,0.00238125));
#1077=CARTESIAN_POINT('',(0.0253175,0.0112662561210691,0.00238125));
#1078=CARTESIAN_POINT('',(0.0257175,0.0136792561210691,0.00198125));
#1079=CARTESIAN_POINT('',(0.0253175,0.0142860888191975,0.00238125));
#1080=CARTESIAN_POINT('',(0.0264795,0.0142860888191975,0.00238125));
#1081=CARTESIAN_POINT('',(0.0262031578947369,0.0154147513200624,0.00238125));
#1082=CARTESIAN_POINT('',(0.0262031578947369,0.0154147513200624,0.00198125));
#1083=CARTESIAN_POINT('',(0.0262031578947369,0.0154147513200624,0.00238125));
#1084=CARTESIAN_POINT('',(0.0262031578947369,0.,0.00238125));
#1085=CARTESIAN_POINT('',(0.0262031578947369,0.0154379882307342,0.00238125));
#1086=CARTESIAN_POINT('',(0.0262031578947369,0.0154379882307342,0.00198125));
#1087=CARTESIAN_POINT('',(0.0262031578947369,0.0154379882307342,0.00238125));
#1088=CARTESIAN_POINT('',(6.93889390390723E-18,0.0154379882307342,0.00238125));
#1089=CARTESIAN_POINT('',(0.0220568421052632,0.0154379882307342,0.00238125));
#1090=CARTESIAN_POINT('',(0.0220568421052632,0.0154379882307342,0.00198125));
#1091=CARTESIAN_POINT('',(0.0220568421052632,0.0154379882307342,0.00238125));
#1092=CARTESIAN_POINT('',(0.0216568421052632,0.0154379882307342,0.00198125));
#1093=CARTESIAN_POINT('',(0.0220568421052632,0.0154147513200624,0.00238125));
#1094=CARTESIAN_POINT('',(0.0220568421052632,0.0154147513200624,0.00198125));
#1095=CARTESIAN_POINT('',(0.0220568421052632,0.0154147513200624,0.00238125));
#1096=CARTESIAN_POINT('',(0.0217805,0.0142860888191975,0.00238125));
#1097=CARTESIAN_POINT('',(0.0229425,0.0142860888191975,0.00238125));
#1098=CARTESIAN_POINT('',(0.0229425,0.,0.00238125));
#1099=CARTESIAN_POINT('',(0.0229425,0.0112662561210691,0.00238125));
#1100=CARTESIAN_POINT('',(0.0217805,0.0112662561210691,0.00238125));
#1101=CARTESIAN_POINT('',(0.0217805,0.0101042561210691,0.00238125));
#1102=CARTESIAN_POINT('',(6.93889390390723E-18,0.0101042561210691,0.00238125));
#1103=MECHANICAL_DESIGN_GEOMETRIC_PRESENTATION_REPRESENTATION('',(#644),
#1104);
#1104=(
GEOMETRIC_REPRESENTATION_CONTEXT(3)
GLOBAL_UNCERTAINTY_ASSIGNED_CONTEXT((#1105))
GLOBAL_UNIT_ASSIGNED_CONTEXT((#1108,#1107,#1106))
REPRESENTATION_CONTEXT('Winding Spacer','TOP_LEVEL_ASSEMBLY_PART')
);
#1105=UNCERTAINTY_MEASURE_WITH_UNIT(LENGTH_MEASURE(1.E-8),#1108,
'DISTANCE_ACCURACY_VALUE','Maximum Tolerance applied to model');
#1106=(
NAMED_UNIT(*)
SI_UNIT($,.STERADIAN.)
SOLID_ANGLE_UNIT()
);
#1107=(
NAMED_UNIT(*)
PLANE_ANGLE_UNIT()
SI_UNIT($,.RADIAN.)
);
#1108=(
LENGTH_UNIT()
NAMED_UNIT(*)
SI_UNIT($,.METRE.)
);
#1109=PRODUCT_DEFINITION_SHAPE('','',#1110);
#1110=PRODUCT_DEFINITION('','',#1112,#1111);
#1111=PRODUCT_DEFINITION_CONTEXT('',#1118,'design');
#1112=PRODUCT_DEFINITION_FORMATION_WITH_SPECIFIED_SOURCE('','',#1114,
 .NOT_KNOWN.);
#1113=PRODUCT_RELATED_PRODUCT_CATEGORY('','',(#1114));
#1114=PRODUCT('Winding Spacer','Winding Spacer','Winding Spacer',(#1116));
#1115=PRODUCT_CATEGORY('','');
#1116=PRODUCT_CONTEXT('',#1118,'mechanical');
#1117=APPLICATION_PROTOCOL_DEFINITION('international standard',
'ap242_managed_model_based_3d_engineering',2011,#1118);
#1118=APPLICATION_CONTEXT('managed model based 3d engineering');
ENDSEC;
END-ISO-10303-21;
